<?xml version="1.0" encoding="UTF-8" standalone="no"?>
<!-- Created with Inkscape (http://www.inkscape.org/) -->

<svg
   xmlns:dc="http://purl.org/dc/elements/1.1/"
   xmlns:cc="http://creativecommons.org/ns#"
   xmlns:rdf="http://www.w3.org/1999/02/22-rdf-syntax-ns#"
   xmlns:svg="http://www.w3.org/2000/svg"
   xmlns="http://www.w3.org/2000/svg"
   xmlns:sodipodi="http://sodipodi.sourceforge.net/DTD/sodipodi-0.dtd"
   xmlns:inkscape="http://www.inkscape.org/namespaces/inkscape"
   id="svg2985"
   version="1.1"
   inkscape:version="0.48.1 "
   width="434"
   height="434"
   sodipodi:docname="kpi-wiki-logo_simple.svg"
   inkscape:export-filename="D:\TEMP\1\kpi-wiki-logo_simple.png"
   inkscape:export-xdpi="90"
   inkscape:export-ydpi="90">
  <metadata
     id="metadata2991">
    <rdf:RDF>
      <cc:Work
         rdf:about="">
        <dc:format>image/svg+xml</dc:format>
        <dc:type
           rdf:resource="http://purl.org/dc/dcmitype/StillImage" />
        <dc:title></dc:title>
      </cc:Work>
    </rdf:RDF>
  </metadata>
  <defs
     id="defs2989" />
  <sodipodi:namedview
     pagecolor="#ffffff"
     bordercolor="#666666"
     borderopacity="1"
     objecttolerance="10"
     gridtolerance="10"
     guidetolerance="10"
     inkscape:pageopacity="1"
     inkscape:pageshadow="2"
     inkscape:window-width="1366"
     inkscape:window-height="706"
     id="namedview2987"
     showgrid="false"
     inkscape:zoom="0.47158032"
     inkscape:cx="263.53351"
     inkscape:cy="166.19881"
     inkscape:window-x="0"
     inkscape:window-y="0"
     inkscape:window-maximized="1"
     inkscape:current-layer="g3013" />
  <g
     id="g3013"
     transform="translate(94,-137)">
    <path
       style="fill:#007ec6"
       d="m 123,354 c 0,68.41782 0,132.25647 0,217 100.13457,0 154.7841,0 217,0 0,-56.3456 0,-171.34495 0,-217 z m 61.65625,43.95187 18.1875,0 18.15625,0 8.8125,4.25 c 4.83878,2.3375 10.53271,5.97491 12.65625,8.09375 3.81397,3.80551 3.83533,3.92121 3.15625,9.5 -0.37809,3.10617 -1.31552,8.72029 -2.09375,12.46875 -1.81773,8.75509 -1.84374,18.0842 -0.0625,19.5625 0.73992,0.61409 2.74601,1.40545 4.46875,1.75 4.23856,0.84771 5.30313,2.42672 5.71875,8.4375 0.49528,7.16272 3.40699,12.46594 10.6875,19.5625 5.70729,5.56312 7.0008,6.32351 14.15625,8.21875 4.33096,1.14712 8.09443,2.31318 8.375,2.59375 1.11795,1.11796 -2.23952,6.7815 -6.625,11.1875 -6.2067,6.23577 -13.99567,11.33662 -18.46875,12.0625 l -3.65625,0.59375 0,-5.25 c 0,-11.36888 -11.39377,-25.8814 -25.15625,-32.03125 -7.14689,-3.19363 -7.68597,-3.66815 -8.21875,-7 -0.50221,-3.14064 -1.24531,-3.88802 -6.125,-6.28125 -3.05001,-1.49587 -5.75445,-2.71875 -6,-2.71875 -0.99537,0 0.99655,3.69551 3.65625,6.78125 1.55721,1.80664 2.84375,3.95711 2.84375,4.78125 0,2.48414 4.73698,11.04738 12.375,22.375 6.83579,10.13784 8.59383,13.75778 11.65625,23.84375 1.1207,3.691 1.07278,4.75129 -0.3125,7.65625 -1.9916,4.17641 -6.95231,8.0302 -12.21875,9.46875 -4.8208,1.31683 -4.89544,1.30668 -10.28125,-0.375 -7.28464,-2.27458 -14.80487,-8.91789 -28,-24.71875 -1.23745,-1.48182 -1.08809,-2.11237 1.28125,-5.21875 2.86653,-3.7582 12.207,-8.99903 15.0625,-8.4375 2.06884,0.40684 2.70855,1.61365 4.9375,9.3125 1.81952,6.28465 6.80428,12.53125 10,12.53125 1.43145,0 1.59883,-0.61321 1.03125,-3.75 -0.37319,-2.0625 -1.82435,-5.48907 -3.21875,-7.625 -4.36233,-6.6821 -14.70425,-16.52461 -18.90625,-17.96875 -4.53498,-1.55855 -10.40625,-8.48913 -10.40625,-12.28125 0,-4.40122 -3.66923,-9.78004 -14.4375,-21.28125 l -10.5625,-11.3125 0,-15.65625 0,-15.65625 8.75,-8.71875 z"
       id="path3142"
       inkscape:connector-curvature="0"
       sodipodi:nodetypes="cccccccccssssssssssccssssssssssssssssssssscccccc" />
    <path
       style="fill:#efe40d"
       d="m 123,137 c 0,72.96602 0,139.04417 0,217 86.41427,0 138.46363,0 217,0 0,-63.29456 0,-152.33334 0,-217 -57.53038,0 -173.46832,0 -217,0 z m 112.90335,55.5607 5.84375,3.53125 c 8.70172,5.30028 12.42098,9.61688 13.03125,15.03125 l 0.53125,4.5 7.125,1.71875 c 13.28656,3.18664 29.77096,8.49756 35.71875,11.5 l 5.9375,2.96875 -2.15625,4.25 c -4.07729,8.04753 -11.28819,20.26546 -18.6875,31.71875 -7.30784,11.3117 -21.97201,32 -22.6875,32 -0.20099,0 -3.37095,-5.5125 -7.0625,-12.25 -9.14359,-16.68814 -16.36108,-27.02157 -18.375,-26.375 -5.94914,1.90996 -11.61167,4.26503 -11.90625,4.9375 -1.92892,4.40342 -10.34742,14.29899 -23.4375,27.625 -8.67394,8.83028 -15.86179,16.0625 -16,16.0625 -0.1382,0 -3.94401,-3.7125 -8.4375,-8.25 l -8.15625,-8.25 4,-6.5 c 6.07795,-9.87958 12.51576,-23.00575 14.28125,-29.0625 1.22949,-4.21794 3.18954,-7.16788 8.6875,-13.1875 l 7.0625,-7.75 -0.6875,-6.4375 -0.6875,-6.40625 8.59375,-11.96875 c 6.42754,-8.94837 9.26879,-12.11997 11.34375,-12.625 1.52466,-0.3711 5.79518,-2.03869 9.46875,-3.71875 z"
       id="path3158"
       inkscape:connector-curvature="0"
       sodipodi:nodetypes="cccccccccccccssssssscccscccccscc" />
    <path
       style="fill:#40aa33;fill-opacity:1"
       d="m -94,354 c 0,113.83233 0,133.56873 0,217 136.803801,0 142.201425,0 217,0 0,-134.08569 0,-162.70495 0,-217 -40.75868,0 -166.63657,0 -217,0 z m 159.746374,44.00013 c 0.99186,-0.43105 2.321859,0.81227 6.875,5.40625 l 6.34375,6.40625 -2.125,2.125 c -1.16108,1.16107 -2.09375,3.14774 -2.09375,4.4375 0,2.68421 -2.84568,5.65625 -5.40625,5.65625 -3.23169,0 -5.37214,1.92417 -6.03125,5.4375 -0.720741,3.84186 -3.743311,6.5625 -7.3125,6.5625 -1.4585,0 -2.710021,0.87819 -3.40625,2.40625 -1.198651,2.63072 -1.164871,2.75874 5.46875,14.6875 2.01068,3.61567 3.913539,8.56566 4.21875,11 l 0.5625,4.40625 -10.15625,8.5 c -13.386221,11.19456 -34.037191,31.73822 -46.2812505,46.03125 -5.4108,6.31624 -10.19284,11.62109 -10.625,11.78125 -1.25662,0.46568 -0.074,-7.77999 2.0625,-14.40625 2.32232,-7.20245 8.52915,-16.84695 20.4375005,-31.78125 10.90978,-13.682 17.594989,-23.64008 17.21875,-25.59375 -0.545811,-2.83417 -3.852011,-2.18397 -9.0625,1.75 -2.863731,2.16212 -12.58185,10.74585 -21.5937505,19.09375 -9.0119,8.34789 -19.3652965,17.42865 -22.9999975,20.15625 -6.615549,4.96452 -18.093749,11.62604 -18.093749,10.5 0,-1.13693 4.28655,-9.04911 7.249999,-13.375 4.345371,-6.34313 12.893141,-16.3835 25.0937475,-29.4375 13.48305,-14.42615 21.7744795,-24.77255 21.4062505,-26.71875 -0.87733,-4.63689 -8.5681405,-0.322 -29.968748,16.75 -6.808459,5.43134 -15.069359,11.48433 -18.343749,13.46875 -7.59538,4.60312 -17.59707,7.98065 -22.531251,7.59375 l -3.84375,-0.3125 6.21875,-5.125 c 18.38827,-15.14769 41.5121475,-38.39171 58.0624975,-58.34375 4.2357105,-5.10631 8.7493205,-4.4334 21.8437505,3.21875 8.118719,4.74443 11.81092,4.80883 13.15625,0.25 1.518829,-5.14679 2.23102,-5.94579 6.6875,-7.5 3.6278,-1.26521 4.495649,-2.07844 5.25,-5 1.18876,-4.60402 2.222349,-5.73712 6.03125,-6.53125 1.74949,-0.36477 3.854289,-1.50918 4.6875,-2.5625 0.362299,-0.45803 0.669379,-0.79382 1,-0.9375 z"
       id="path3164"
       inkscape:connector-curvature="0"
       sodipodi:nodetypes="cccccsccssssssscccsssssssssssssscccssssssss" />
    <g
       id="g3182"
       transform="matrix(0.99999829,0,0,1,-70.50367,138.43554)">
      <path
         sodipodi:nodetypes="cccccsscsscccscssssssssssssssscssssssssssssssssssssssss"
         inkscape:connector-curvature="0"
         style="fill:#de1d14;fill-opacity:1"
         d="m 193.504,-1.43554 c -51.23525,0 -162.90323,-2.315e-4 -217.00037,-2.315e-4 0,64.6666705 0,152.3335615 0,217.0002315 46.59747,0 188.27869,-4.6e-4 217.00037,-4.6e-4 0,-69 0,-147.999532 0,-216.99954 z m -60.81287,34.187497 c 3.01565,0.390962 3.8125,2.37581 3.8125,7.375 0,6.16596 1.47645,7.22894 7.625,5.53125 2.02977,-0.56047 4.06714,-0.78684 4.53125,-0.5 0.46412,0.28684 1.94288,25.023617 0.84375,54.906253 l 0,54.375 -8.46875,8.5625 -8.46875,8.5625 -60.875,0 c -33.48189,0 -61.16459,-0.28958 -61.53125,-0.65625 -0.95353,-0.95352 -0.8073,-10.58742 0.1875,-12.15625 0.62311,-0.98265 2.38971,-1.13599 6.90625,-0.625 5.45978,0.6177 6.16529,0.47663 7.15625,-1.375 1.45274,-2.71447 1.37543,-7.46832 -0.125,-8.96875 -0.66,-0.66 -2.71135,-1.21875 -4.5625,-1.21875 -5.19521,0 -7.21875,-1.54047 -7.21875,-5.46875 0,-4.44393 1.54545,-8.43274 3.59375,-9.21875 0.90026,-0.34546 3.80905,0.16859 6.46875,1.125 5.50496,1.97956 6.5863,1.59908 8.46875,-2.90625 2.03797,-4.87756 0.93205,-7.33165 -3.90625,-8.625 -5.18432,-1.38585 -6.625,-2.55389 -6.625,-5.375 0,-2.91517 4.06549,-8.90499 6.34375,-9.34375 0.9815,-0.18902 3.53764,0.79604 5.6875,2.21875 4.75775,3.14853 5.06988,3.16952 7.65625,0.34375 4.7127,-5.14892 3.94607,-8.3639 -2.875,-11.84375 -2.20549,-1.12516 -3.8145,-2.65681 -3.8125,-3.65625 0.006,-2.74616 3.76318,-8.17628 6.53125,-9.4375 2.2853,-1.04125 2.88522,-0.78488 6.28125,2.53125 4.41704,4.31313 6.37849,4.55901 9.71875,1.21875 3.61153,-3.61153 3.1765,-6.65425 -1.53125,-10.4375 -2.2,-1.76797 -4,-3.69246 -4,-4.28125 0,-1.929103 7.72,-8.843753 9.875,-8.843753 1.3609,0 2.96439,1.40592 4.5625,3.9375 1.35962,2.15377 2.89714,4.154113 3.40625,4.468753 1.8065,1.11648 7.22171,-1.663413 8.65625,-4.437503 1.3895,-2.687 1.2969,-2.98522 -2.03125,-6.96875 -1.9171,-2.29462 -3.46875,-4.51119 -3.46875,-4.90625 0,-1.52759 5.77928,-6.17926 8.75,-7.03125 3.55965,-1.02089 4.2319,-0.48279 6.59375,5.21875 0.85759,2.07023 2.24269,4.01717 3.09375,4.34375 2.26425,0.86888 6.31811,-0.38061 8.59375,-2.65625 1.98099,-1.98099 1.96817,-2.00681 -0.59375,-7.0625 -2.08321,-4.11101 -2.31356,-5.32505 -1.3125,-6.53125 1.93552,-2.33216 6.49417,-4.375 9.8125,-4.375 2.48845,0 3.11357,0.49195 3.625,2.75 2.04356,9.02258 1.88254,8.75214 5.40625,9.09375 4.21492,0.40861 8.03125,-1.54603 8.03125,-4.125 0,-1.08075 -0.54334,-3.72499 -1.1875,-5.875 -1.49775,-4.99905 0.0967,-6.83371 6.5625,-7.5625 1.55559,-0.175338 2.80728,-0.224071 3.8125,-0.09375 z"
         id="path3156" />
      <g
         style="fill:#de1d14;fill-opacity:1"
         transform="translate(764.75363,-31.466793)"
         id="g3166">
        <path
           sodipodi:nodetypes="scccccss"
           inkscape:connector-curvature="0"
           style="fill:#de1d14;fill-opacity:1"
           d="m -615.21875,167.8125 c -1.79951,-0.35888 -5.69395,12.45117 -6.65625,21.84375 l -0.65625,6.375 29.625,0 29.65625,0 0,-2.25 c -0.006,-1.96294 -3.22757,-3.75234 -25.25,-13.96875 -13.88362,-6.44074 -25.92021,-11.84074 -26.71875,-12 z"
           id="path3168"
           transform="translate(-94,0)" />
        <path
           sodipodi:nodetypes="sssscss"
           inkscape:connector-curvature="0"
           style="fill:#de1d14;fill-opacity:1"
           d="m -570.71875,115.21875 c -1.10214,-1.10214 -14.65983,8.9301 -22.0625,16.3125 -6.90462,6.88571 -18.43803,22.08882 -17.34375,22.875 0.19947,0.14331 12.075,5.72901 26.375,12.40625 14.3,6.67724 26.10054,12.1627 26.25,12.1875 0.44324,0.0734 11.25,-10.88315 11.25,-11.40625 0,-0.66334 -23.88688,-51.79313 -24.46875,-52.375 z"
           id="path3170"
           transform="translate(-94,0)" />
        <path
           sodipodi:nodetypes="ssssscscs"
           inkscape:connector-curvature="0"
           style="fill:#de1d14;fill-opacity:1"
           d="m -533.21875,102.6875 c -2.74657,0.25762 -6.9852,1.11785 -13.03125,2.5625 -13.40531,3.20307 -13.09079,1.12531 -3.3125,22.03125 4.69576,10.03952 10.23997,21.9625 12.34375,26.5 2.9832,6.43428 4.29604,8.25 5.90625,8.25 1.36949,0 2.0684,-0.67337 2.125,-2 0.047,-1.1 0.0937,-13.925 0.0937,-28.5 0,-14.575 -0.0469,-27.13359 -0.0937,-27.90625 -0.053,-0.87257 -1.28468,-1.19512 -4.03125,-0.9375 z"
           id="path3172"
           transform="translate(-94,0)" />
      </g>
    </g>
  </g>
</svg>
